<?xml version="1.0" encoding="UTF-8"?>
<!-- Creator: CorelDRAW -->
<svg xmlns="http://www.w3.org/2000/svg" xml:space="preserve" width="512px" height="512px" version="1.1" style="shape-rendering:geometricPrecision; text-rendering:geometricPrecision; image-rendering:optimizeQuality; fill-rule:evenodd; clip-rule:evenodd"
viewBox="0 0 512 512"
 xmlns:xlink="http://www.w3.org/1999/xlink">
 <defs>
  <style type="text/css">
   <![CDATA[
    .fil0 {fill:black}
   ]]>
  </style>
 </defs>
 <g id="Layer_x0020_1">
  <metadata id="CorelCorpID_0Corel-Layer"/>
  <g id="_514624248">
   <g>
    <g>
     <path class="fil0" d="M428 512c-26,0 -47,-21 -47,-47l0 -418c0,-26 21,-47 47,-47 26,0 47,21 47,47l0 418c0,26 -21,47 -47,47zm0 -498c-18,0 -33,15 -33,33l0 418c0,18 15,33 33,33 18,0 33,-15 33,-33l0 -418c0,-18 -15,-33 -33,-33z"/>
    </g>
    <g>
     <g>
      <path class="fil0" d="M59 287c0,0 -1,0 -2,0 -1,-1 -3,-2 -4,-4l-13 -22c-7,-11 -3,-26 9,-33 0,0 0,0 0,0l336 -194c2,-1 5,-1 7,0 2,1 3,4 3,6l0 50c0,3 -1,5 -3,6l-329 190c-1,1 -3,1 -4,1zm-3 -47c-5,3 -7,9 -4,13 0,0 0,0 0,1l10 16 319 -184 0 -34 -325 188z"/>
     </g>
     <g>
      <path class="fil0" d="M75 314c-2,0 -4,-1 -6,-3l-16 -27c-2,-4 -1,-8 3,-10 3,-2 7,-1 9,2l13 21 203 -117 -13 -21c-2,-4 0,-8 3,-10 3,-2 8,-1 10,3l16 28c1,3 0,7 -3,9l-215 124c-1,1 -3,1 -4,1z"/>
     </g>
    </g>
    <g>
     <g>
      <path class="fil0" d="M444 107l-33 0c-6,0 -10,-4 -10,-10l0 -36c0,-6 5,-11 10,-11l33 0c6,0 11,5 11,11l0 36c0,6 -4,10 -11,10zm-29 -14l26 0 0 -29 -26 0 0 29zm29 -29l0 0 0 0z"/>
     </g>
     <g>
      <path class="fil0" d="M444 462l-33 0c-5,0 -10,-5 -10,-11l0 -36c0,-6 4,-10 10,-10l33 0c7,0 11,4 11,10l0 36c0,6 -5,11 -11,11zm-29 -14l26 0 0 -29 -26 0 0 29zm29 -29l0 0 0 0z"/>
     </g>
    </g>
   </g>
  </g>
 </g>
</svg>
