<?xml version="1.0" encoding="UTF-8"?>
<!-- Creator: CorelDRAW -->
<svg xmlns="http://www.w3.org/2000/svg" xml:space="preserve" width="512px" height="512px" version="1.1" style="shape-rendering:geometricPrecision; text-rendering:geometricPrecision; image-rendering:optimizeQuality; fill-rule:evenodd; clip-rule:evenodd"
viewBox="0 0 512 512"
 xmlns:xlink="http://www.w3.org/1999/xlink">
 <defs>
  <style type="text/css">
   <![CDATA[
    .fil0 {fill:white}
   ]]>
  </style>
 </defs>
 <g id="Layer_x0020_1">
  <metadata id="CorelCorpID_0Corel-Layer"/>
  <g id="_514634136">
   <g>
    <g>
     <path class="fil0" d="M466 400l-421 0c-4,0 -7,-3 -7,-7 0,-17 -14,-31 -31,-31 -4,0 -7,-3 -7,-7l0 -197c0,-4 3,-7 7,-7 17,0 31,-15 31,-32 0,-4 3,-7 7,-7l421 0c4,0 7,3 7,7 0,17 15,32 32,32 4,0 7,3 7,7l0 197c0,4 -3,7 -7,7 -17,0 -32,14 -32,31 0,4 -3,7 -7,7zm-414 -14l408 0c1,-9 6,-18 13,-25 7,-7 16,-11 25,-13l0 -184c-19,-3 -35,-19 -38,-38l-408 0c-2,9 -6,18 -13,25 -7,7 -16,12 -25,13l0 184c19,4 34,19 38,38z"/>
    </g>
    <g>
     <path class="fil0" d="M455 297l-19 0c-10,0 -17,-5 -19,-13l-48 0c-10,8 -24,12 -39,12 -14,0 -28,-4 -38,-12l-29 0c-2,8 -11,13 -19,13l-19 0c-4,0 -7,-3 -7,-7l0 -6 -25 0c-10,8 -24,12 -38,12 -14,0 -28,-4 -37,-12l-23 0c-2,7 -10,13 -20,13l-19 0c-4,0 -7,-3 -7,-7l0 -68c0,-4 3,-7 7,-7l19 0c10,0 18,6 20,13l23 0c9,-8 23,-12 37,-12 14,0 28,4 38,12l25 0 0 -6c0,-4 3,-7 7,-7l19 0c8,0 17,5 19,13l29 0c10,-8 24,-12 38,-12 15,0 29,4 39,12l48 0c2,-8 9,-13 19,-13l19 0c4,0 7,3 7,7l0 68c0,4 -3,7 -7,7zm-89 -27l58 0c4,0 7,3 7,7l0 4c0,1 2,2 5,2l12 0 0 -54 -12 0c-3,0 -5,1 -5,2l0 4c0,4 -3,7 -7,7l-58 0c-2,0 -3,-1 -5,-2 -7,-6 -19,-10 -31,-10 -12,0 -23,4 -30,10 -2,1 -3,2 -5,2l-39 0c-4,0 -7,-3 -7,-7l0 -4c0,-1 -2,-2 -5,-2l-12 0 0 6c0,4 -3,7 -7,7l-34 0c-2,0 -3,0 -4,-1 -9,-7 -21,-11 -32,-11 -11,0 -23,4 -30,10 -2,1 -3,2 -5,2l-32 0c-4,0 -7,-3 -7,-7l0 -4c0,-1 -3,-2 -6,-2l-12 0 0 54 12 0c3,0 6,-2 6,-2l0 -4c0,-4 3,-7 7,-7l32 0c2,0 3,1 5,2 7,6 19,10 30,10 11,0 23,-4 32,-11 1,-1 2,-1 4,-1l34 0c4,0 7,3 7,7l0 6 12 0c3,0 5,-2 5,-2l0 -4c0,-4 3,-7 7,-7l39 0c2,0 3,1 5,2 7,6 19,10 30,10 12,0 24,-4 31,-10 2,-1 3,-2 5,-2z"/>
    </g>
   </g>
  </g>
 </g>
</svg>
