<?xml version="1.0" encoding="utf-8"?>
<!-- Generator: Adobe Illustrator 25.2.0, SVG Export Plug-In . SVG Version: 6.00 Build 0)  -->
<svg version="1.1" id="Layer_1" xmlns="http://www.w3.org/2000/svg" xmlns:xlink="http://www.w3.org/1999/xlink" x="0px" y="0px"
	 viewBox="0 0 100 100" enable-background="new 0 0 100 100" xml:space="preserve" fill="white">
<path d="M59.46,44.41c0.38,0,0.77-0.15,1.06-0.44L93.69,10.8c0.59-0.59,0.59-1.54,0-2.12c-0.59-0.59-1.54-0.59-2.12,0L58.4,41.85
	c-0.59,0.59-0.59,1.54,0,2.12C58.69,44.27,59.07,44.41,59.46,44.41z"/>
<path d="M32.91,67.34c-6.47-5.4-16.14-5.07-22.21,1.01c-6.43,6.43-6.43,16.89,0,23.32c3.21,3.21,7.44,4.82,11.66,4.82
	s8.45-1.61,11.66-4.82c6.07-6.07,6.4-15.73,1.01-22.21l17.33-17.35l39.21,39.21c0.29,0.29,0.68,0.44,1.06,0.44s0.77-0.15,1.06-0.44
	c0.59-0.59,0.59-1.54,0-2.12L53.43,48.94l-18.4-18.4c5.4-6.47,5.07-16.14-1.01-22.21c-6.43-6.43-16.89-6.43-23.32,0
	c-6.43,6.43-6.43,16.89,0,23.32c3.21,3.22,7.44,4.82,11.66,4.82c3.75,0,7.5-1.28,10.55-3.82L50.24,50L32.91,67.34z M31.9,89.55
	c-5.26,5.26-13.82,5.26-19.08,0c-5.26-5.26-5.26-13.82,0-19.08c2.63-2.63,6.08-3.95,9.54-3.95s6.91,1.32,9.54,3.95c0,0,0,0,0,0
	c0,0,0,0,0,0c0,0,0,0,0,0C37.16,75.73,37.16,84.29,31.9,89.55z M12.82,29.53c-5.26-5.26-5.26-13.82,0-19.08
	c2.63-2.63,6.08-3.94,9.54-3.94c3.45,0,6.91,1.32,9.54,3.94c5.26,5.26,5.26,13.82,0,19.08C26.64,34.79,18.08,34.79,12.82,29.53z"/>
</svg>
